<?xml version="1.0" encoding="iso-8859-1"?>
<!-- Uploaded to: SVG Repo, www.svgrepo.com, Generator: SVG Repo Mixer Tools -->
<svg fill="#000000" height="800px" width="800px" version="1.1" id="Layer_1" xmlns="http://www.w3.org/2000/svg" xmlns:xlink="http://www.w3.org/1999/xlink" 
	 viewBox="0 0 512 512" xml:space="preserve">
<g>
	<g>
		<path d="M114.086,145.586l-22.267-38.567c-2.305-3.994-7.414-5.361-11.409-3.054c-2.63,1.519-4.114,4.251-4.169,7.08
			c-5.333,0.052-10.485,1.504-14.981,4.099c-0.026,0.014-0.05,0.03-0.075,0.046c-0.026,0.013-0.051,0.028-0.077,0.042
			c-6.774,3.911-12.06,10.399-14.242,18.529c-4.362,16.261,5.321,33.032,21.584,37.385c8.132,2.177,16.394,0.843,23.168-3.068
			c0.026-0.014,0.05-0.03,0.075-0.046c0.026-0.013,0.051-0.028,0.077-0.041c4.496-2.595,8.329-6.332,11.041-10.924
			c2.477,1.366,5.586,1.447,8.215-0.071C115.021,154.689,116.392,149.58,114.086,145.586z M89.874,145.143
			c-0.957,3.567-3.246,6.55-6.446,8.397l-0.004-0.008c-0.027,0.016-0.052,0.033-0.078,0.05c-0.024,0.012-0.049,0.023-0.072,0.037
			l0.004,0.007c-3.2,1.847-6.927,2.339-10.494,1.384c-7.366-1.972-11.751-9.567-9.776-16.932c0.957-3.567,3.247-6.55,6.446-8.397
			l0.004,0.008c0.027-0.016,0.052-0.033,0.078-0.05c0.024-0.012,0.049-0.023,0.072-0.037l-0.004-0.007
			c3.2-1.847,6.927-2.339,10.495-1.384c3.626,0.971,6.525,3.308,8.303,6.306l0.163,0.282
			C90.272,137.838,90.846,141.517,89.874,145.143z"/>
	</g>
</g>
<g>
	<g>
		<path d="M355.963,126.226c-2.63-1.519-5.738-1.436-8.216-0.07c-2.712-4.593-6.545-8.328-11.041-10.924
			c-0.026-0.014-0.051-0.028-0.077-0.042c-0.024-0.016-0.049-0.031-0.075-0.046c-6.774-3.911-15.036-5.245-23.168-3.07
			c-16.264,4.353-25.946,21.123-21.583,37.385c2.18,8.132,7.466,14.619,14.241,18.53c0.026,0.014,0.051,0.028,0.077,0.041
			c0.024,0.016,0.049,0.031,0.075,0.046c4.496,2.595,9.648,4.047,14.981,4.1c0.056,2.829,1.539,5.561,4.169,7.08
			c3.996,2.307,9.105,0.94,11.411-3.054l22.267-38.567C361.329,133.642,359.959,128.534,355.963,126.226z M333.498,148.423
			l-0.163,0.282c-1.778,2.998-4.676,5.336-8.302,6.306c-3.568,0.955-7.296,0.463-10.495-1.384l0.004-0.008
			c-0.027-0.016-0.055-0.029-0.082-0.042c-0.022-0.016-0.045-0.03-0.068-0.044l-0.004,0.007c-3.2-1.847-5.489-4.83-6.446-8.397
			c-1.977-7.365,2.408-14.96,9.774-16.932c3.568-0.955,7.296-0.463,10.495,1.384l-0.004,0.008c0.027,0.016,0.055,0.029,0.082,0.042
			c0.022,0.016,0.046,0.03,0.069,0.044l0.004-0.007c3.2,1.847,5.489,4.83,6.446,8.397
			C335.781,141.705,335.206,145.384,333.498,148.423z"/>
	</g>
</g>
<g>
	<g>
		<path d="M333.046,431.965c-2.18-8.131-7.466-14.619-14.241-18.529c-0.026-0.014-0.051-0.028-0.077-0.042
			c-0.024-0.016-0.049-0.031-0.075-0.046c-4.496-2.595-9.648-4.047-14.981-4.1c-0.056-2.829-1.539-5.561-4.169-7.079
			c-3.997-2.307-9.105-0.94-11.412,3.054l-22.267,38.567c-2.306,3.994-0.935,9.102,3.062,11.409c2.63,1.519,5.738,1.436,8.216,0.07
			c2.712,4.593,6.545,8.328,11.041,10.924c0.026,0.014,0.051,0.028,0.077,0.041c0.024,0.016,0.049,0.031,0.075,0.046
			c6.774,3.911,15.036,5.245,23.168,3.069C327.726,464.997,337.409,448.227,333.046,431.965z M307.134,453.215
			c-3.568,0.955-7.296,0.463-10.495-1.384l0.004-0.008c-0.027-0.016-0.055-0.029-0.082-0.042c-0.022-0.016-0.045-0.03-0.068-0.045
			l-0.004,0.007c-3.2-1.847-5.489-4.83-6.446-8.397c-0.973-3.626-0.397-7.305,1.31-10.344l0.163-0.282
			c1.778-2.998,4.676-5.336,8.302-6.306c3.568-0.955,7.296-0.463,10.495,1.384l-0.004,0.008c0.027,0.016,0.055,0.029,0.082,0.042
			c0.022,0.016,0.046,0.03,0.069,0.044l0.004-0.007c3.2,1.847,5.49,4.83,6.446,8.397C318.885,443.648,314.5,451.244,307.134,453.215
			z"/>
	</g>
</g>
<g>
	<g>
		<path d="M488.368,164.104L334.099,75.037c-9.657-5.576-20.905-7.056-31.681-4.171c-10.772,2.887-19.775,9.795-25.351,19.453
			L171.555,273.073l-9.741-2.628c-19.669-5.307-31.759-25.38-26.951-44.745c3.942-15.882,18.091-27.318,34.404-27.812
			c4.141-0.125,7.563-3.268,8.042-7.381c0.479-4.114-2.132-7.957-6.133-9.029l-24.092-6.455c-1.563-0.42-1.949-1.638-2.04-2.326
			c-0.09-0.689-0.033-1.965,1.368-2.773l35.258-20.356c1.401-0.812,2.533-0.222,3.086,0.203c0.551,0.423,1.414,1.366,0.995,2.928
			l-6.456,24.092c-1.072,4.001,0.951,8.184,4.754,9.826c3.803,1.642,8.234,0.252,10.414-3.272
			c5.062-8.186,13.356-14.152,22.753-16.367c4.488-1.059,7.269-5.556,6.21-10.043c-1.059-4.489-5.556-7.269-10.043-6.21
			c-3.821,0.902-7.516,2.229-11.018,3.933c0.966-6.894-1.811-13.815-7.442-18.134c-6.275-4.816-14.755-5.369-21.602-1.415
			l-35.258,20.356c-6.848,3.953-10.607,11.574-9.576,19.414c0.927,7.046,5.547,12.92,12.017,15.524
			c-10.62,7.223-18.608,18.218-21.85,31.276c-6.982,28.125,10.426,57.236,38.809,64.894l5.45,1.47l-28.286,48.991L22.812,143.362
			c-6.906-11.963-2.793-27.314,9.168-34.22L186.25,20.075c5.795-3.347,12.544-4.233,19.008-2.503
			c6.463,1.732,11.865,5.877,15.21,11.672l31.7,54.904c2.306,3.994,7.415,5.361,11.406,3.056c3.994-2.306,5.362-7.413,3.056-11.406
			l-31.7-54.904c-5.576-9.658-14.579-16.567-25.351-19.453c-10.773-2.887-22.022-1.405-31.681,4.171L23.63,94.679
			C3.694,106.19-3.161,131.773,8.35,151.712l116.637,202.019l-3.786,6.559c-11.511,19.937-4.656,45.521,15.282,57.032
			l154.269,89.067c6.433,3.714,13.572,5.611,20.806,5.611c3.626,0,7.278-0.476,10.875-1.441
			c10.772-2.887,19.775-9.795,25.351-19.453l155.868-269.97C515.161,201.199,508.306,175.614,488.368,164.104z M489.188,212.786
			L333.32,482.756c-3.346,5.795-8.748,9.941-15.21,11.672c-6.463,1.728-13.213,0.844-19.008-2.503l-154.269-89.067
			c-5.795-3.346-9.94-8.746-11.671-15.21c-1.731-6.463-0.843-13.213,2.503-19.008L291.532,98.669
			c4.635-8.028,13.072-12.521,21.736-12.521c4.246,0,8.548,1.08,12.483,3.351l154.269,89.067
			C491.981,185.473,496.094,200.824,489.188,212.786z"/>
	</g>
</g>
<g>
	<g>
		<path d="M402.681,274.925c-3.616-14.574-13.26-27.012-26.451-34.125c-4.059-2.189-9.124-0.671-11.313,3.387
			c-2.189,4.059-0.672,9.124,3.387,11.313c9.06,4.885,15.684,13.431,18.171,23.45c4.809,19.367-7.281,39.439-26.951,44.745
			l-68.931,18.598c-2.519,0.68-5.143,0.338-7.394-0.961c-2.25-1.299-3.859-3.402-4.528-5.921l-18.36-68.997
			c-5.239-19.687,6.1-40.194,25.275-45.714c9.56-2.75,19.578-1.577,28.205,3.309c8.628,4.886,14.787,12.866,17.342,22.467
			c1.187,4.457,5.759,7.11,10.217,5.922c4.457-1.186,7.108-5.76,5.922-10.217c-3.719-13.975-12.688-25.588-25.254-32.704
			c-12.563-7.114-27.143-8.828-41.052-4.824c-27.849,8.015-44.355,37.648-36.796,66.056l18.36,68.997
			c1.82,6.84,6.195,12.554,12.317,16.089c4.067,2.348,8.582,3.548,13.157,3.548c2.312,0,4.642-0.306,6.935-0.925l68.933-18.598
			C392.255,332.162,409.665,303.051,402.681,274.925z"/>
	</g>
</g>
</svg>